<?xml version="1.0" encoding="UTF-8"?>
<!DOCTYPE svg PUBLIC "-//W3C//DTD SVG 1.1//EN" "http://www.w3.org/Graphics/SVG/1.1/DTD/svg11.dtd">
<!-- Creator: CorelDRAW (Versão OEM) -->
<svg xmlns="http://www.w3.org/2000/svg" xml:space="preserve" width="800px" height="800px" version="1.1" style="shape-rendering:geometricPrecision; text-rendering:geometricPrecision; image-rendering:optimizeQuality; fill-rule:evenodd; clip-rule:evenodd"
viewBox="0 0 800 800"
 xmlns:xlink="http://www.w3.org/1999/xlink"
 xmlns:xodm="http://www.corel.com/coreldraw/odm/2003">
 <defs>
  <style type="text/css">
   <![CDATA[
    .fil0 {fill:red}
    .fil1 {fill:black;fill-rule:nonzero}
   ]]>
  </style>
 </defs>
 <g id="Camada_x0020_1">
  <metadata id="CorelCorpID_0Corel-Layer"/>
  <g id="_2309540406912">
   <path id="oracle.old.svg" class="fil0" d="M272.53 649.87c-120.09,0 -217.53,-106.78 -217.53,-238.75 0,-131.95 97.44,-239.12 217.53,-239.12l252.83 0c120.11,0 217.5,107.17 217.5,239.12 0,131.97 -97.39,238.75 -217.5,238.75l-252.83 0 0 0zm247.2 -84.28c77.81,0 140.82,-69.04 140.82,-154.47 0,-85.43 -63.01,-154.84 -140.82,-154.84l-241.62 0c-77.76,0 -140.8,69.41 -140.8,154.84 0,85.43 63.04,154.47 140.8,154.47l241.62 0 0 0z"/>
   <path class="fil1" d="M173.94 346c-8.97,1.36 -18.9,8.73 -23.07,17.15 -8.56,17.3 -2.33,39.34 13.48,47.62 6.72,3.53 9.45,3.83 33.76,3.53 21.29,-0.22 22.66,-0.3 26.15,-1.88 8.7,-3.91 15.75,-11.36 18.62,-19.78 0.83,-2.26 1.57,-6.7 1.78,-9.86 0.69,-9.92 -1.99,-18.05 -8.14,-25.19 -4.25,-4.97 -8.5,-7.98 -14.24,-10.16 -4.18,-1.58 -5.75,-1.65 -24.31,-1.88 -10.88,-0.08 -21.7,0.08 -24.03,0.45l0 0zm46.35 14c13.48,6.84 16.43,25.49 5.81,36.25 -6.01,6.01 -7.52,6.31 -31.62,6.01 -19.66,-0.22 -20.61,-0.3 -23.62,-1.95 -6.78,-3.61 -10.88,-10.23 -11.43,-18.21 -0.49,-8.27 2.12,-14.96 7.73,-19.48 5.48,-4.35 6.85,-4.58 29.44,-4.35 19.24,0.15 20.74,0.22 23.69,1.73l0 0z"/>
   <path class="fil1" d="M251.71 379.86l0 34.59 5.82 0 5.82 0 0 -28.21 0 -28.27 22.46 0.22 22.53 0.23 2.46 2.11c4.73,3.9 4.93,11.27 0.48,15.94l-2.12 2.26 -19.79 0.37 -19.85 0.37 18.35 17.46 18.28 17.45 9.44 0.07 9.45 0 -11.98 -11.13c-6.57,-6.09 -11.98,-11.21 -11.98,-11.43 -0.07,-0.23 2.32,-0.46 5.2,-0.61 8.63,-0.37 14.1,-3.98 17.87,-11.81 1.57,-3.23 1.85,-4.66 1.85,-10.53 0,-6.09 -0.21,-7.15 -1.99,-10.75 -3.49,-6.92 -8.69,-10.83 -16.22,-12.19 -2.47,-0.37 -15.75,-0.75 -30.2,-0.75l-25.88 0 0 34.61 0 0 0 0z"/>
   <path class="fil1" d="M369.07 346.3c-1.17,0.6 -3.02,2.18 -3.98,3.61 -1.03,1.36 -9.79,16.32 -19.51,33.32l-17.66 30.85 7.25 0.22c3.98,0.08 7.33,-0.07 7.47,-0.37 0.27,-0.98 29.44,-51.53 30.12,-52.29 0.34,-0.37 3.83,4.9 8.56,13.25 4.45,7.59 8.01,14.06 8.01,14.29 0,0.22 -7.12,0.45 -15.82,0.45 -8.69,0 -15.67,0.3 -15.53,0.6 0.13,0.38 1.57,3.09 3.28,6.02l3.08 5.41 16.16 0 16.15 0 3.57 6.4 3.63 6.39 7.45 0 7.53 0 -1.36 -2.1c-1.3,-1.96 -26.77,-45.74 -33.96,-58.37 -1.92,-3.31 -4.31,-6.55 -5.48,-7.3 -2.39,-1.66 -5.95,-1.81 -8.96,-0.38l0 0z"/>
   <path class="fil1" d="M440.68 346c-13.42,2.03 -24.17,13.17 -26.77,27.68 -3.08,17.75 7.05,34.9 23.55,39.72 2.67,0.75 8.7,1.05 24.44,1.05l20.89 0 3.63 -6.02 3.56 -6.02 -23.63 0c-22.31,0 -23.76,-0.07 -27.46,-1.58 -4.79,-1.94 -8.69,-5.78 -11.09,-10.75 -2.53,-5.42 -2.59,-14.21 -0.13,-19.48 1.98,-4.37 5.89,-8.43 10.2,-10.6 2.94,-1.51 4.58,-1.58 23.83,-1.96l20.67 -0.37 3.15 -5.5c1.71,-3.08 3.08,-5.87 3.08,-6.24 0,-0.83 -42.44,-0.76 -47.92,0.07l0 0 0 0z"/>
   <path class="fil1" d="M496.82 345.78c-0.21,8.95 0.14,64.46 0.41,65.29 1.16,3.16 2.94,3.38 31.9,3.38l27.59 0 3.63 -6.02 3.56 -6.02 -27.73 0 -27.73 0 0 -28.57 0 -28.59 -5.81 0c-3.22,0 -5.82,0.23 -5.82,0.53l0 0 0 0z"/>
   <path class="fil1" d="M587.88 346.08c-9.45,1.65 -19.17,9.93 -23.42,19.93 -2.74,6.47 -3.42,16.32 -1.57,23.32 2.94,11.35 10.82,20.23 20.94,23.69 3.7,1.28 6.51,1.43 25.54,1.43l21.37 0 3.56 -6.02 3.49 -6.02 -23.55 0c-21.84,0 -23.83,-0.07 -27.18,-1.5 -5.01,-2.02 -8.15,-5.11 -10.75,-10.45l-2.19 -4.59 26.7 0 26.7 0 3.08 -5.49c1.71,-3.08 3.15,-5.72 3.15,-5.87 0,-0.15 -13.22,-0.22 -29.44,-0.07 -23.48,0.15 -29.44,0 -29.44,-0.76 0,-1.88 4.11,-8.8 6.3,-10.61 5.75,-4.73 5.27,-4.65 27.94,-5.03l20.8 -0.37 3.3 -5.65c1.77,-3.08 3.21,-5.87 3.21,-6.24 0.07,-0.76 -43.95,-0.53 -48.54,0.3l0 0 0 0z"/>
   <path class="fil1" d="M513.46 450.63c-11.03,4.66 -12.94,19.71 -3.29,25.94 1.65,1.06 6.57,2.86 10.96,4.07 9.51,2.56 11.3,3.91 11.3,8.73 0,2.63 -0.35,3.52 -2.33,5.41 -5.55,5.34 -16.03,3.01 -18.28,-3.98 -0.9,-2.64 -0.97,-2.64 -4.87,-2.64 -3.77,0 -3.97,0.08 -3.97,1.88 0,4.74 4.31,10.45 9.93,13.31 2.81,1.43 4.52,1.74 9.58,1.66 6.92,-0.08 9.8,-1.13 13.76,-4.97 4.94,-4.81 6.24,-11.2 3.56,-17.15 -2.32,-4.96 -5.74,-7.14 -15.19,-9.69 -9.86,-2.71 -11.64,-3.92 -11.92,-8.36 -0.14,-2.25 0.14,-3.61 1.03,-4.66 4.11,-5.12 14.31,-4.59 17.18,0.9 1.1,2.11 1.38,2.26 5.41,2.26l4.18 0 -0.76 -2.86c-1.16,-4.14 -5.81,-8.87 -10.13,-10.23 -4.92,-1.65 -11.77,-1.5 -16.15,0.38l0 0 0 0z"/>
   <path class="fil1" d="M199.48 450.25c-0.28,0.3 -0.49,12.56 -0.49,27.15l0 26.71 12.88 -0.31c12.45,-0.22 12.94,-0.3 16.7,-2.33 9.45,-5.11 14.52,-17.82 12.19,-30.76 -1.65,-9.48 -6.16,-15.65 -13.62,-18.73 -3.15,-1.28 -5.82,-1.65 -15.48,-1.88 -6.43,-0.22 -11.91,-0.15 -12.18,0.15l0 0 0 0zm23.13 8.65c3.7,1.13 8.09,6.17 9.25,10.68 0.55,2.19 0.75,5.79 0.55,9.4 -0.35,7.23 -2.26,11.44 -6.57,14.74 -2.81,2.18 -3.42,2.33 -10.41,2.56l-7.47 0.3 -0.2 -19.25 -0.2 -19.26 6.15 0c3.43,0 7.4,0.38 8.9,0.83l0 0 0 0z"/>
   <path class="fil1" d="M267.53 451.16c-0.48,1.05 -10.47,29.48 -16.91,48.06l-1.58 4.74 4.32 0 4.31 0 2.05 -6.63 2.06 -6.53 10.47 0 10.48 0 2.05 6.53 1.99 6.63 4.45 0c3.97,0 4.38,-0.16 4.04,-1.36 -0.27,-0.68 -4.45,-12.78 -9.38,-26.85l-8.9 -25.65 -4.38 -0.15c-3.56,-0.15 -4.52,0.08 -5.07,1.21l0 0 0 0zm8.56 20.23c2.05,5.71 3.69,10.45 3.69,10.53 0,0.15 -3.42,0.22 -7.6,0.22 -5.82,0 -7.53,-0.22 -7.32,-0.98 2.74,-8.57 7.05,-20.68 7.32,-20.46 0.14,0.23 1.92,5.05 3.91,10.69l0 0z"/>
   <polygon class="fil1" points="298.96,453.94 298.96,458.07 306.83,458.07 314.7,458.07 314.7,481.01 314.7,503.96 318.81,503.96 322.92,503.96 322.92,481.01 322.92,458.07 330.79,458.07 338.66,458.07 338.66,453.94 338.66,449.8 318.81,449.8 298.96,449.8 "/>
   <path class="fil1" d="M358.72 452.59c-0.95,2.63 -12.59,35.72 -16.36,46.63l-1.57 4.74 4.38 0 4.31 0 1.99 -6.63 2.05 -6.53 10.54 -0.23 10.62 -0.15 1.98 6.76 1.99 6.78 4.59 0 4.58 0 -7.19 -20.54c-3.97,-11.2 -8.14,-23.32 -9.38,-26.85l-2.18 -6.39 -4.59 -0.23 -4.66 -0.22 -1.1 2.86 0 0 0 0zm10.96 22.93l2.4 6.62 -7.81 0c-4.31,0 -7.81,-0.22 -7.81,-0.52 0,-0.31 1.52,-4.75 3.36,-9.93 1.78,-5.27 3.56,-10.16 3.77,-10.99 0.41,-1.2 0.82,-0.45 2.05,3.39 0.89,2.71 2.67,7.83 4.04,11.43l0 0z"/>
   <path class="fil1" d="M399.6 476.8l0 27.23 13.9 -0.23 13.97 -0.22 3.28 -2.26c3.97,-2.71 5.68,-5.11 6.5,-9.09 1.38,-6.32 -0.95,-12.12 -5.88,-14.98l-2.81 -1.65 2.26 -1.35c2.67,-1.58 5.07,-6.4 5.07,-10.01 0,-5.27 -3.36,-10.22 -8.56,-12.63 -2.12,-0.98 -5.68,-1.36 -15.2,-1.66l-12.53 -0.37 0 27.22 0 0 0 0zm26.42 -16.25c1.92,2.49 2.13,6.18 0.55,8.73 -1.85,2.79 -5.06,3.84 -12.25,3.84l-6.51 0 0 -7.6 0 -7.6 8.29 0.3c8.07,0.23 8.28,0.3 9.92,2.33l0 0 0 0zm1.24 22.27c1.37,1.43 1.78,2.56 1.78,5.12 0,6.91 -2.54,8.49 -13.7,8.49l-7.53 0 0 -7.74c0,-4.29 0.14,-7.98 0.28,-8.13 0.13,-0.15 4.18,-0.15 8.83,0.08 7.87,0.37 8.7,0.52 10.34,2.18l0 0z"/>
   <path class="fil1" d="M465.81 450.33c-0.21,0.3 -3.91,10.9 -8.29,23.54 -4.38,12.64 -8.56,24.52 -9.31,26.47l-1.3 3.62 4.31 0 4.38 0 2.19 -6.78 2.2 -6.76 10.4 0 10.41 0 1.99 6.76 1.98 6.78 4.66 0c4.51,0 4.58,-0.08 4.04,-1.73 -8.64,-24.75 -17.47,-50.02 -17.87,-50.92 -0.62,-1.28 -9.17,-2.11 -9.79,-0.98l0 0zm4.79 31.66c-4.17,0.08 -7.6,0.08 -7.74,-0.07 -0.14,-0.15 1.51,-5.2 3.63,-11.28l3.83 -11.14 3.9 11.14 3.84 11.13 -7.47 0.22 0 0 0.01 0z"/>
   <polygon class="fil1" points="555.7,476.95 555.7,503.96 572.48,503.96 589.25,503.96 589.25,500.19 589.25,496.43 576.58,496.43 563.91,496.43 563.91,488.91 563.91,481.39 574.87,481.39 585.82,481.39 585.82,477.63 585.82,473.87 574.87,473.87 563.91,473.87 563.91,465.97 563.91,458.07 576.44,458.07 588.91,458.07 588.84,454.09 588.7,450.18 572.2,450.03 555.7,449.88 "/>
  </g>
 </g>
</svg>
